<?xml version="1.0" encoding="UTF-8" standalone="no"?>
<svg xmlns="http://www.w3.org/2000/svg" xmlns:svg="http://www.w3.org/2000/svg" width="800" height="600" version="1.1">
    <g>
        <line x1="100" y1="100" x2="400" y2="100" style="stroke:rgb(100,100,100);stroke-width:2;stroke-dasharray:1" />
        <line x1="100" y1="100" x2="100" y2="400" style="stroke:rgb(100,100,100);stroke-width:2;stroke-dasharray:1" />
        <line x1="100" y1="100" x2="150" y2="300" style="stroke:rgb(0,0,255);stroke-width:2;stroke-dasharray:1" />
        <line x1="100" y1="100" x2="400" y2="400" style="stroke:rgb(255,0,0);stroke-width:3" />
        <circle cx="100" cy="100" r="4" fill="rgba(0,0,0,0.9)"/>
        <circle cx="400" cy="400" r="4" fill="rgba(0,0,0,0.9)"/>
        <circle cx="150" cy="300" r="20" stroke="green" fill="rgba(0,255,0,0.5)"/>
        <text x="104" y="99" style="font-weight: bold">P1</text>
        <text x="404" y="412" style="font-weight: bold">P2</text>
        <text x="151" y="312" style="font-weight: bold">C</text>
        <line x1="150" y1="300" x2="223" y2="223" style="stroke:rgb(255,0,0);stroke-width:2;stroke-dasharray:4" />
        <circle cx="223" cy="223" r="4" fill="rgba(0,0,0,0.9)"/>
        <text x="228" y="223" style="font-weight: bold">C1</text>
        <line x1="100" y1="100" x2="150" y2="300" style="stroke:rgb(0,0,255);stroke-width:2" />
        <path d="M120 120 C 120 120, 135 115, 130 100" stroke="black" stroke-width="2" fill-opacity="0"/>
        <text x="135" y="118" style="font-weight: bold">α</text>
        <line x1="223" y1="223" x2="223" y2="100" style="stroke:rgb(100,100,100);stroke-width:2;stroke-dasharray:1" />
        <circle cx="228" cy="100" r="4" fill="rgba(0,0,0,0.9)"/>
        <text x="228" y="115" style="font-weight: bold">C1x</text>
        <line x1="223" y1="223" x2="100" y2="223" style="stroke:rgb(100,100,100);stroke-width:2;stroke-dasharray:1" />
        <circle cx="100" cy="223" r="4" fill="rgba(0,0,0,0.9)"/>
        <text x="70" y="223" style="font-weight: bold">C1y</text>
    </g>
</svg>